<?xml version="1.0" encoding="utf-8"?>
<svg id="master-artboard" viewBox="0 0 1400 450" version="1.1" xmlns="http://www.w3.org/2000/svg" x="0px" y="0px" style="enable-background:new 0 0 336 235.2;" width="1400px" height="450px"><rect id="ee-background" x="0" y="0" width="1400" height="450" style="fill: white; fill-opacity: 0; pointer-events: none;"/><g transform="matrix(0.9999997615814209, 0, 0, 0.9999997615814209, -0.00002555700484663248, -244.9999542236328)"><g transform="matrix(1.0248901903367496, 0, 0, 1.0248901903367496, -0.00002555623541411478, 96.44216694188475)"><g transform="matrix(1.7253363847934955, 0, 0, 1.7253363847934955, -495.44103091450296, -42.51959220591215)">
	<g>
		<g>
			<path class="st0" d="M630.6,268.8c-21.4,0-34.2-14.8-34.2-42.3s12.7-42.3,33.6-42.3c9.5,0,18.4,3.2,24.6,13l-8.9,3.9&#10;&#9;&#9;&#9;&#9;c-3.5-5.7-9.2-8.7-15.8-8.7c-15.5,0-23.6,13.8-23.6,34.1s8.6,34.1,24.8,34.1c8.7,0,16.5-2.4,21.7-6.8l4.1,7.1&#10;&#9;&#9;&#9;&#9;C650.7,265.9,641,268.8,630.6,268.8z" style="fill: rgb(27, 166, 255);"/>
			<path class="st0" d="M668.4,267.6v-82.4c1.4-0.8,2.7-1.1,4.2-1.1c3.2,0,5.5,2.4,5.5,6.6v76.9H668.4z" style="fill: rgb(27, 166, 255);"/>
			<path class="st0" d="M741.7,191.5l-4.1,7.3c-5.6-4.1-12.7-6.5-19.5-6.5c-9.3,0-14.8,4.6-14.8,12.2c0,9.4,8.4,12.7,17.4,16.3&#10;&#9;&#9;&#9;&#9;c10.8,4.2,22.7,8.9,22.7,24.7c0,14.8-10,23.2-26.7,23.2c-9.8,0-19.1-2.5-25.6-7.6l3.2-7.6c5.3,4.3,13.6,6.9,22.5,6.9&#10;&#9;&#9;&#9;&#9;c10.5,0,16.6-4.9,16.6-13.5c0-10.2-8.6-13.5-17.7-17.2c-10.6-4.2-22.2-8.6-22.2-24c0-13.8,9.3-21.7,24.8-21.7&#10;&#9;&#9;&#9;&#9;C726.8,184.1,734.8,186.7,741.7,191.5z" style="fill: rgb(27, 166, 255);"/>
			<path class="st0" d="M802.2,191.5l-4.1,7.3c-5.6-4.1-12.7-6.5-19.5-6.5c-9.3,0-14.8,4.6-14.8,12.2c0,9.4,8.4,12.7,17.4,16.3&#10;&#9;&#9;&#9;&#9;c10.8,4.2,22.7,8.9,22.7,24.7c0,14.8-10,23.2-26.7,23.2c-9.8,0-19.1-2.5-25.6-7.6l3.2-7.6c5.3,4.3,13.6,6.9,22.5,6.9&#10;&#9;&#9;&#9;&#9;c10.5,0,16.6-4.9,16.6-13.5c0-10.2-8.6-13.5-17.7-17.2c-10.6-4.2-22.2-8.6-22.2-24c0-13.8,9.3-21.7,24.8-21.7&#10;&#9;&#9;&#9;&#9;C787.3,184.1,795.3,186.7,802.2,191.5z" style="fill: rgb(27, 166, 255);"/>
			<path class="st0" d="M862.9,189.9h-23.7v77.7H834v-77.7h-23.7v-4.7h52.5V189.9z" style="fill: rgb(27, 166, 255);"/>
			<path class="st0" d="M898.1,212l-1.5,5.3c-1.9-1.3-4.6-1.9-7.3-1.9c-11.2,0-19.7,8.7-19.7,23v29.3h-4.9V211&#10;&#9;&#9;&#9;&#9;c0.6-0.5,1.3-0.6,1.8-0.6c1.7,0,3.1,1.3,3.1,4.6v9.3c3.8-7.9,11.1-13.8,21.2-13.8C893.9,210.4,896.3,211,898.1,212z" style="fill: rgb(27, 166, 255);"/>
			<path class="st0" d="M944,230.3v37.9c-0.6,0.5-1.3,0.6-1.8,0.6c-1.7,0-3.1-1.3-3.1-4.6v-7.8c-4.1,7.1-12.8,12.4-21.4,12.4&#10;&#9;&#9;&#9;&#9;c-10.8,0-17.1-6.2-17.1-16.8c0-10.6,8.4-16.8,22.4-16.8c5.3,0,10.9,0.3,16,0.9v-4.2c0-10.8-5.6-17.1-15.1-17.1&#10;&#9;&#9;&#9;&#9;c-6.8,0-12.2,1.6-16.8,4.9l-2.1-3.5c5.7-4.1,12.2-5.7,19.6-5.7C936.8,210.4,944,217.8,944,230.3z M939.1,245.4v-5&#10;&#9;&#9;&#9;&#9;c-5.4-0.6-11.1-0.9-16-0.9c-11,0-17.4,4.6-17.4,12.5c0,7.9,4.8,12.5,12.8,12.5C927.4,264.4,939.1,257.2,939.1,245.4z" style="fill: rgb(27, 166, 255);"/>
			<path class="st0" d="M982.4,268.8c-15.7,0-24.8-10.9-24.8-29.3c0-18.3,9.3-29.1,24.9-29.1c7.1,0,14,3.2,17.6,10.5l-4.5,1.7&#10;&#9;&#9;&#9;&#9;c-3.1-5.3-7.3-7.9-13.2-7.9c-12.5,0-19.9,9.2-19.9,24.7c0,15.7,7.3,24.9,19.8,24.9c6.5,0,12.9-2.2,17.5-6.3l2.1,4.4&#10;&#9;&#9;&#9;&#9;C996.8,266.7,990.7,268.8,982.4,268.8z" style="fill: rgb(27, 166, 255);"/>
			<path class="st0" d="M1019,182.9v84.7h-4.9v-88.7c0.6-0.5,1.3-0.6,1.8-0.6C1017.6,178.4,1019,179.6,1019,182.9z M1059.3,267.6&#10;&#9;&#9;&#9;&#9;c-0.8,0.7-2.1,1.1-3.3,1.1c-1.7,0-3.5-0.8-6.1-3.1l-30.6-27.8l31.8-27.5l5.4,1.1l-30.7,26.2L1059.3,267.6z" style="fill: rgb(27, 166, 255);"/>
		</g>
		<path class="st0" d="M449,126h-72.1c-38.7,0-70.1,31.5-70.1,70.1v72.1c0,38.7,31.5,70.1,70.1,70.1H449c38.7,0,70.1-31.5,70.1-70.1&#10;&#9;&#9;&#9;v-72.1C519.1,157.5,487.6,126,449,126z M507.1,268.3c0,32-26.1,58.1-58.1,58.1h-72.1c-32,0-58.1-26.1-58.1-58.1v-72.1&#10;&#9;&#9;&#9;c0-32,26.1-58.1,58.1-58.1H449c32,0,58.1,26.1,58.1,58.1V268.3z" style="fill: rgb(27, 166, 255);"/>
		<g>
			<path class="st0" d="M440.6,286.9c-9.7,0-17.6-7.3-18.7-16.7h-23.6c-1.1,9.4-9,16.7-18.7,16.7c-9.8,0-17.9-7.6-18.7-17.2&#10;&#9;&#9;&#9;&#9;c-4.2-1.1-9.1-4.2-9.1-9.1v-73.5c0-5.3,4.3-9.6,9.6-9.6h62.5c5.3,0,9.6,4.3,9.6,9.6v23.7l14.3-0.2c4.3,0,10.2,3.5,12.5,6.7&#10;&#9;&#9;&#9;&#9;l8.6,11.9c3.1,4.3,4.9,10,5,15.5l0.2,16c0,2.5-1,5-2.8,6.8c-1.8,1.8-4.3,2.9-6.8,2.9h-5.1C458.3,279.6,450.3,286.9,440.6,286.9z&#10;&#9;&#9;&#9;&#9; M440.6,259.3c-4.9,0-8.8,3.9-8.8,8.8c0,4.9,3.9,8.8,8.8,8.8c4.9,0,8.8-3.9,8.8-8.8C449.4,263.2,445.5,259.3,440.6,259.3z&#10;&#9;&#9;&#9;&#9; M379.6,259.3c-4.9,0-8.8,3.9-8.8,8.8c0,4.9,3.9,8.8,8.8,8.8c4.9,0,8.8-3.9,8.8-8.8C388.4,263.2,384.5,259.3,379.6,259.3z&#10;&#9;&#9;&#9;&#9; M457.7,260.2h6.3l-0.1-12.4h-19.1c-2.6,0-5.2-1.1-7.1-3c-1.9-1.9-2.9-4.4-2.9-7.1l0.1-17l-1.4,0v17.4c0,5.3-4.3,9.6-9.6,9.6&#10;&#9;&#9;&#9;&#9;h-62.1v11.6c0.3,0.1,0.6,0.3,0.9,0.4c3.1-6.2,9.5-10.5,16.9-10.5c7.6,0,14.1,4.5,17.1,10.9h26.8c3-6.4,9.5-10.9,17.1-10.9&#10;&#9;&#9;&#9;&#9;S454.7,253.8,457.7,260.2z M444.9,220.6l-0.1,17.2l17.5,0c-0.4-1-1-1.9-1.6-2.8l-8.6-11.9c-0.7-0.9-3.3-2.4-4.3-2.5L444.9,220.6z&#10;&#9;&#9;&#9;&#9; M361.8,237.8h61.6v-20.7c-0.1-0.4-0.2-0.8-0.2-1.2c0-0.5,0.1-0.9,0.2-1.3v-27h-61.6V237.8z M423.9,187.5L423.9,187.5&#10;&#9;&#9;&#9;&#9;L423.9,187.5z" style="fill: rgb(27, 166, 255);"/>
		</g>
	</g>
</g></g></g></svg>